<svg xmlns="http://www.w3.org/2000/svg" xmlns:xlink="http://www.w3.org/1999/xlink" width="1920" zoomAndPan="magnify" viewBox="0 0 1440 809.999993" height="1080" preserveAspectRatio="xMidYMid meet" version="1.0"><defs><clipPath id="id1"><path d="M 405.039062 121.011719 L 534.789062 121.011719 L 534.789062 161.511719 L 405.039062 161.511719 Z M 405.039062 121.011719 " clip-rule="nonzero"/></clipPath><clipPath id="id2"><path d="M 405.039062 204.429688 L 534.789062 204.429688 L 534.789062 244.929688 L 405.039062 244.929688 Z M 405.039062 204.429688 " clip-rule="nonzero"/></clipPath><clipPath id="id3"><path d="M 404.960938 287.074219 L 534.710938 287.074219 L 534.710938 327.574219 L 404.960938 327.574219 Z M 404.960938 287.074219 " clip-rule="nonzero"/></clipPath><clipPath id="id4"><path d="M 560.558594 120.988281 L 690.308594 120.988281 L 690.308594 161.488281 L 560.558594 161.488281 Z M 560.558594 120.988281 " clip-rule="nonzero"/></clipPath><clipPath id="id5"><path d="M 560.558594 204.429688 L 690.308594 204.429688 L 690.308594 244.929688 L 560.558594 244.929688 Z M 560.558594 204.429688 " clip-rule="nonzero"/></clipPath><clipPath id="id6"><path d="M 560.558594 287.074219 L 690.308594 287.074219 L 690.308594 327.574219 L 560.558594 327.574219 Z M 560.558594 287.074219 " clip-rule="nonzero"/></clipPath><clipPath id="id7"><path d="M 716.15625 121.011719 L 845.90625 121.011719 L 845.90625 161.511719 L 716.15625 161.511719 Z M 716.15625 121.011719 " clip-rule="nonzero"/></clipPath><clipPath id="id8"><path d="M 716.15625 204.429688 L 845.90625 204.429688 L 845.90625 244.929688 L 716.15625 244.929688 Z M 716.15625 204.429688 " clip-rule="nonzero"/></clipPath><clipPath id="id9"><path d="M 716.15625 287.074219 L 845.90625 287.074219 L 845.90625 327.574219 L 716.15625 327.574219 Z M 716.15625 287.074219 " clip-rule="nonzero"/></clipPath><clipPath id="id10"><path d="M 924.410156 120.988281 L 1042.160156 120.988281 L 1042.160156 161.488281 L 924.410156 161.488281 Z M 924.410156 120.988281 " clip-rule="nonzero"/></clipPath><clipPath id="id11"><path d="M 871.753906 287.074219 L 1021.753906 287.074219 L 1021.753906 327.574219 L 871.753906 327.574219 Z M 871.753906 287.074219 " clip-rule="nonzero"/></clipPath><clipPath id="id12"><path d="M 1001.445312 141.269531 L 1041.945312 141.269531 L 1041.945312 327.269531 L 1001.445312 327.269531 Z M 1001.445312 141.269531 " clip-rule="nonzero"/></clipPath><clipPath id="id13"><path d="M 494.195312 204.589844 L 534.695312 204.589844 L 534.695312 327.589844 L 494.195312 327.589844 Z M 494.195312 204.589844 " clip-rule="nonzero"/></clipPath><clipPath id="id14"><path d="M 405.054688 121.007812 L 445.554688 121.007812 L 445.554688 224.507812 L 405.054688 224.507812 Z M 405.054688 121.007812 " clip-rule="nonzero"/></clipPath><clipPath id="id15"><path d="M 871.769531 121.007812 L 912.269531 121.007812 L 912.269531 310 L 871.769531 310 Z M 871.769531 121.007812 " clip-rule="nonzero"/></clipPath></defs><g clip-path="url(#id1)"><path fill="#439b69" d="M 405.050781 121.011719 L 534.773438 121.011719 L 534.773438 161.511719 L 405.050781 161.511719 L 405.050781 121.011719 " fill-opacity="1" fill-rule="nonzero"/></g><g clip-path="url(#id2)"><path fill="#439b69" d="M 405.050781 204.429688 L 534.773438 204.429688 L 534.773438 244.929688 L 405.050781 244.929688 L 405.050781 204.429688 " fill-opacity="1" fill-rule="nonzero"/></g><g clip-path="url(#id3)"><path fill="#439b69" d="M 404.976562 287.074219 L 534.695312 287.074219 L 534.695312 327.574219 L 404.976562 327.574219 L 404.976562 287.074219 " fill-opacity="1" fill-rule="nonzero"/></g><g clip-path="url(#id4)"><path fill="#439b69" d="M 560.570312 120.988281 L 690.292969 120.988281 L 690.292969 161.488281 L 560.570312 161.488281 L 560.570312 120.988281 " fill-opacity="1" fill-rule="nonzero"/></g><g clip-path="url(#id5)"><path fill="#439b69" d="M 560.570312 204.429688 L 690.292969 204.429688 L 690.292969 244.929688 L 560.570312 244.929688 L 560.570312 204.429688 " fill-opacity="1" fill-rule="nonzero"/></g><g clip-path="url(#id6)"><path fill="#439b69" d="M 560.570312 287.074219 L 690.292969 287.074219 L 690.292969 327.574219 L 560.570312 327.574219 L 560.570312 287.074219 " fill-opacity="1" fill-rule="nonzero"/></g><g clip-path="url(#id7)"><path fill="#439b69" d="M 716.167969 121.011719 L 845.890625 121.011719 L 845.890625 161.511719 L 716.167969 161.511719 L 716.167969 121.011719 " fill-opacity="1" fill-rule="nonzero"/></g><g clip-path="url(#id8)"><path fill="#439b69" d="M 716.167969 204.429688 L 845.890625 204.429688 L 845.890625 244.929688 L 716.167969 244.929688 L 716.167969 204.429688 " fill-opacity="1" fill-rule="nonzero"/></g><g clip-path="url(#id9)"><path fill="#439b69" d="M 716.167969 287.074219 L 845.890625 287.074219 L 845.890625 327.574219 L 716.167969 327.574219 L 716.167969 287.074219 " fill-opacity="1" fill-rule="nonzero"/></g><g clip-path="url(#id10)"><path fill="#439b69" d="M 924.425781 120.988281 L 1042.144531 120.988281 L 1042.144531 161.488281 L 924.425781 161.488281 L 924.425781 120.988281 " fill-opacity="1" fill-rule="nonzero"/></g><g clip-path="url(#id11)"><path fill="#439b69" d="M 871.769531 287.074219 L 1021.738281 287.074219 L 1021.738281 327.574219 L 871.769531 327.574219 L 871.769531 287.074219 " fill-opacity="1" fill-rule="nonzero"/></g><g clip-path="url(#id12)"><path fill="#439b69" d="M 1041.945312 141.292969 L 1041.945312 327.25 L 1001.445312 327.25 L 1001.445312 141.292969 L 1041.945312 141.292969 " fill-opacity="1" fill-rule="nonzero"/></g><g clip-path="url(#id13)"><path fill="#439b69" d="M 494.195312 327.574219 L 494.195312 204.605469 L 534.695312 204.605469 L 534.695312 327.574219 L 494.195312 327.574219 " fill-opacity="1" fill-rule="nonzero"/></g><g clip-path="url(#id14)"><path fill="#439b69" d="M 445.554688 121.019531 L 445.554688 224.496094 L 405.054688 224.496094 L 405.054688 121.019531 L 445.554688 121.019531 " fill-opacity="1" fill-rule="nonzero"/></g><g clip-path="url(#id15)"><path fill="#439b69" d="M 912.269531 121.035156 L 912.269531 309.984375 L 871.769531 309.984375 L 871.769531 121.035156 L 912.269531 121.035156 " fill-opacity="1" fill-rule="nonzero"/></g></svg>